<?xml version="1.0" encoding="utf-8"?>
<!-- Generator: Adobe Illustrator 21.0.2, SVG Export Plug-In . SVG Version: 6.00 Build 0)  -->
<!DOCTYPE svg PUBLIC "-//W3C//DTD SVG 1.1//EN" "http://www.w3.org/Graphics/SVG/1.1/DTD/svg11.dtd">
<svg version="1.1" id="Layer_1" xmlns="http://www.w3.org/2000/svg" xmlns:xlink="http://www.w3.org/1999/xlink" x="0px" y="0px"
	 viewBox="0 0 161.6 161.6" style="enable-background:new 0 0 161.6 161.6;" xml:space="preserve">
<style type="text/css">
	.st0{fill:#E57A25;}
	.st1{fill:#FFFFFF;}
</style>
<circle class="st0" cx="80.8" cy="80.8" r="80.8"/>
<g>
	<path class="st1" d="M29.7,61.8h8.8v13.9h13.3v8.5H38.5v13.8h-8.8V84.2H16.3v-8.5h13.3V61.8z"/>
	<path class="st1" d="M62.4,100.6l17.2-21.7c4.1-5.2,6.1-7.4,6.1-12.4c0-5-3.2-7.4-7.3-7.4c-2.4,0-3.9,0.3-5.2,0.7
		c-1.6,0.5-1.7,1.4-1.7,3v6.1l-8.8-0.6V54.5c4.5-2.3,10.9-4.1,17.5-4.1c10.6,0,16.4,6.2,16.4,15.4c0,5.7-2.8,10.9-7.4,16.4
		L75.3,98.7h21.6v8.6H62.4V100.6z"/>
	<path class="st1" d="M144.9,78.9c0,20.5-7.1,29.3-20.3,29.3c-13.2,0-19.9-8.7-19.9-28.9c0-19.9,8.1-28.8,20.5-28.8
		C137.3,50.4,144.9,58.4,144.9,78.9z M134.6,79c0-15.8-3.9-20.2-9.6-20.2c-6.1,0-9.8,4.9-9.8,21.3c0,15,3.7,19.6,9.6,19.6
		C130.5,99.8,134.6,95.5,134.6,79z"/>
</g>
</svg>
