<?xml version="1.0" encoding="utf-8"?>
<!-- Generator: Adobe Illustrator 21.0.2, SVG Export Plug-In . SVG Version: 6.00 Build 0)  -->
<!DOCTYPE svg PUBLIC "-//W3C//DTD SVG 1.1//EN" "http://www.w3.org/Graphics/SVG/1.1/DTD/svg11.dtd">
<svg version="1.1" id="Layer_1" xmlns="http://www.w3.org/2000/svg" xmlns:xlink="http://www.w3.org/1999/xlink" x="0px" y="0px"
	 viewBox="0 0 161.6 161.6" style="enable-background:new 0 0 161.6 161.6;" xml:space="preserve">
<style type="text/css">
	.st0{fill:#E57A25;}
	.st1{enable-background:new    ;}
	.st2{fill:#FFFFFF;}
	.st3{fill:none;stroke:#FFFFFF;stroke-width:5.6693;stroke-miterlimit:10;}
</style>
<circle class="st0" cx="80.8" cy="80.8" r="80.8"/>
<g class="st1">
	<path class="st2" d="M31.6,66.4c0-2.8-2.6-3.6-5.7-4.5c-4.5-1.2-8.6-3-8.6-8.8c0-5.5,4.2-8.8,10.4-8.8c3,0,5.8,0.6,8.5,1.8v6.7
		l-4.6,0.3v-2.6c0-0.9-0.1-1.2-0.9-1.5c-0.9-0.3-2-0.4-2.9-0.4c-2.7,0-4.7,1.1-4.7,3.9s2.6,3.6,6,4.6c4.1,1.3,8.4,3.1,8.4,9
		c0,5.9-4.7,9.2-10.9,9.2c-3.6,0-6.4-0.6-9.1-1.8v-7.1l4.6-0.3v2.7c0,0.9,0.1,1.2,0.9,1.5c0.9,0.3,2,0.4,3.2,0.4
		C29.2,70.7,31.6,69.8,31.6,66.4z"/>
	<path class="st2" d="M48.7,49.3h-3.5c-0.9,0-1,0.6-1,1.4v2.1l-4.6-0.3v-7.6h23.5v7.6l-4.6,0.3v-2.1c0-0.9-0.1-1.4-1.3-1.4h-3.1
		v21.5l3.6,0.1v3.8H45v-3.6l2.4-0.1c0.9-0.1,1.3-0.4,1.3-1.3V49.3z"/>
	<path class="st2" d="M70.9,48.8l-2.8-0.3v-3.6h10.3l9.2,26h0l2.6,0.1v3.8H78.5v-3.6l1.7-0.1c0.9-0.1,1.4-0.4,1.1-1.3l-0.9-2.8H69.9
		l-1.3,4l2.7,0.1v3.8H60.8v-3.6l1.5-0.1c0.8-0.1,1-0.4,1.3-1.3L70.9,48.8z M70.9,62.7h8.4l-4-12.8h-0.1L70.9,62.7z"/>
	<path class="st2" d="M91.8,71.1l1.5-0.1c0.8-0.1,1.3-0.4,1.3-1.3V48.8L92,48.7v-3.8h12.3c6.6,0,10.8,2.2,10.8,8.3
		c0,4.5-2.9,6.9-5.4,7.9c1.2,0.5,1.9,1.2,2.6,2.7l3.2,7.1l2.6,0.1v3.8H107v-3.6l1.3-0.1c1-0.1,1.3-0.5,0.9-1.4l-2.1-4.5
		c-0.6-1.4-1.3-2.1-2.8-2.1h-4.1v7.8L103,71v3.8H91.8V71.1z M104,58.7c3.8,0,5.5-1.8,5.5-4.9c0-4-2.3-4.5-6.2-4.5h-3.3v9.5H104z"/>
	<path class="st2" d="M127,49.3h-3.5c-0.9,0-1,0.6-1,1.4v2.1l-4.6-0.3v-7.6h23.5v7.6l-4.6,0.3v-2.1c0-0.9-0.1-1.4-1.3-1.4h-3.1v21.5
		L136,71v3.8h-12.7v-3.6l2.4-0.1c0.9-0.1,1.3-0.4,1.3-1.3V49.3z"/>
</g>
<g class="st1">
	<path class="st2" d="M44.8,120.4c0-2.8-2.6-3.6-5.7-4.5c-4.5-1.2-8.6-3-8.6-8.8c0-5.5,4.2-8.8,10.4-8.8c3,0,5.8,0.6,8.5,1.8v6.7
		l-4.6,0.3v-2.6c0-0.9-0.1-1.2-0.9-1.5c-0.9-0.3-2-0.4-2.9-0.4c-2.7,0-4.7,1.1-4.7,3.9s2.6,3.6,6,4.6c4.1,1.3,8.4,3.1,8.4,9
		c0,5.9-4.7,9.2-10.9,9.2c-3.6,0-6.4-0.6-9.1-1.8v-7.1l4.6-0.3v2.7c0,0.9,0.1,1.2,0.9,1.5c0.9,0.3,2,0.4,3.2,0.4
		C42.4,124.7,44.8,123.8,44.8,120.4z"/>
	<path class="st2" d="M61.9,103.3h-3.5c-0.9,0-1,0.6-1,1.4v2.1l-4.6-0.3v-7.6h23.5v7.6l-4.6,0.3v-2.1c0-0.9-0.1-1.4-1.3-1.4h-3.1
		v21.5l3.6,0.1v3.8H58.2v-3.6l2.4-0.1c0.9-0.1,1.3-0.4,1.3-1.3V103.3z"/>
	<path class="st2" d="M90.4,129.4c-8,0-13-5.2-13-15.5c0-11.5,7.2-15.6,13.5-15.6c6.7,0,12.7,4.1,12.7,15.6
		C103.7,124.2,98.3,129.4,90.4,129.4z M90.7,124.8c5.7,0,7.3-5.4,7.3-10.8c0-4.6-1.2-11.1-7.4-11.1c-5.8,0-7.6,5.4-7.6,10.7
		C83,118.8,84.3,124.8,90.7,124.8z"/>
	<path class="st2" d="M106.9,125.1l1.5-0.1c0.8-0.1,1.3-0.4,1.3-1.3v-20.9l-2.6-0.1v-3.8H120c6.6,0,10.7,3.1,10.7,9.2
		c0,6.8-4.9,10.3-11.7,10.3h-3.8v6.5l4.3,0.1v3.8h-12.6V125.1z M118.4,113.9c3.9,0,6.6-1.3,6.6-5.4c0-4.6-2.7-5.4-7.1-5.4h-2.7v10.7
		H118.4z"/>
</g>
<line class="st3" x1="13.5" y1="87.4" x2="146.8" y2="87.4"/>
</svg>
